<svg width="31" height="36" viewBox="0 0 31 36" fill="none" xmlns="http://www.w3.org/2000/svg">
<path d="M1.15954 17.4056C1.42487 14.011 1.55754 12.3137 2.68976 11.2818C3.82198 10.25 5.55177 10.25 9.01134 10.25H21.9889C25.4484 10.25 27.1782 10.25 28.3104 11.2818C29.4427 12.3137 29.5753 14.011 29.8407 17.4056L30.5979 27.0931C30.9032 30.9999 31.0559 32.9532 29.8871 34.1954C28.7183 35.4375 26.7276 35.4375 22.7461 35.4375H8.25413C4.27264 35.4375 2.28189 35.4375 1.11308 34.1954C-0.0557243 32.9532 0.0969591 30.9999 0.402326 27.0931L1.15954 17.4056Z" fill="#1A1A1A"/>
<path fill-rule="evenodd" clip-rule="evenodd" d="M15.437 0.562501H15.563C16.4266 0.562477 17.1717 0.562456 17.7884 0.603868C18.4378 0.647469 19.0873 0.743383 19.729 1.00495C21.1762 1.59489 22.326 2.72643 22.9254 4.15066C23.1912 4.78214 23.2887 5.42134 23.333 6.06039C23.3751 6.66732 23.375 7.40064 23.375 8.25052L23.375 10.25H19.4375V8.3125C19.4375 7.38323 19.4364 6.78331 19.4046 6.32416C19.374 5.88242 19.3216 5.71418 19.2876 5.63355C19.0878 5.15881 18.7046 4.78163 18.2222 4.58499C18.1402 4.55159 17.9693 4.50002 17.5204 4.46988C17.0539 4.43855 16.4443 4.4375 15.5 4.4375C14.5557 4.4375 13.9461 4.43855 13.4796 4.46988C13.0307 4.50002 12.8598 4.55159 12.7778 4.58499C12.2954 4.78163 11.9122 5.15881 11.7124 5.63355C11.6784 5.71418 11.626 5.88242 11.5954 6.32416C11.5636 6.78331 11.5625 7.38323 11.5625 8.3125V10.25H7.625L7.625 8.25053C7.62498 7.40065 7.62496 6.66733 7.66703 6.06039C7.71134 5.42134 7.8088 4.78214 8.07459 4.15066C8.67404 2.72643 9.82383 1.59489 11.271 1.00495C11.9127 0.743383 12.5622 0.647469 13.2116 0.603868C13.8283 0.562456 14.5734 0.562477 15.437 0.562501Z" fill="#1A1A1A"/>
</svg>
